<svg preserveAspectRatio="none" width="100%" height="100%" overflow="visible" style="display: block;" viewBox="0 0 92 41.301" fill="none" xmlns="http://www.w3.org/2000/svg">
<g id="Group 1">
<path id="Vector" d="M53.0346 0.00805446C53.5905 0.00805446 54.1029 0.00805446 54.6148 0.00805446C56.6421 0.0102752 58.6699 0.0267083 60.6967 0.00316893C61.1291 -0.0017166 61.2877 0.157285 61.4273 0.539245C62.7173 4.0697 64.0296 7.59217 65.3601 11.1835C65.4276 11.0422 65.4783 10.9539 65.5134 10.8593C66.8056 7.39897 68.097 3.93824 69.3862 0.476621C69.4799 0.22435 69.543 0.00183651 69.911 0.00450135C72.3538 0.0218228 74.7966 0.0151607 77.2393 0.0173814C77.3033 0.0173814 77.3669 0.0333704 77.4669 0.0471387V22.3274H70.2665V14.809C70.2345 14.7988 70.203 14.789 70.171 14.7788C70.1154 14.8978 70.0514 15.0142 70.0052 15.1368C69.1489 17.4161 68.2877 19.6932 67.4496 21.9792C67.3358 22.2892 67.1847 22.3731 66.875 22.3682C65.8116 22.3518 64.7477 22.3487 63.6847 22.3718C63.3461 22.3793 63.2048 22.2701 63.0875 21.9503C62.2107 19.5559 61.3095 17.17 60.3341 14.7863V22.3203H53.0337V0.00805446H53.0346Z" fill="var(--fill-0, black)"/>
<path id="Vector_2" d="M43.2688 24.0249C44.6029 24.0249 45.8956 24.0249 47.1878 24.0249C47.8358 24.0249 48.485 24.0489 49.1311 24.0169C49.4969 23.9987 49.6435 24.1355 49.7595 24.4695C50.6603 27.0659 51.5819 29.6552 52.4973 32.2463C52.5284 32.3338 52.5653 32.4195 52.6475 32.627C53.0364 31.5672 53.3879 30.6155 53.7341 29.6619C54.3664 27.9186 54.9957 26.1741 55.6254 24.4295C55.7036 24.2132 55.7462 24.0147 56.0751 24.0178C57.9357 24.0346 59.7964 24.0244 61.657 24.0253C61.7361 24.0253 61.8152 24.0435 61.929 24.0573V41.2597H56.5599V35.4277C56.5297 35.4179 56.4995 35.4082 56.4688 35.3984C56.4004 35.5454 56.3226 35.6889 56.2657 35.8403C55.6303 37.5298 54.9899 39.2175 54.3731 40.9137C54.2709 41.1948 54.1478 41.2992 53.846 41.2926C53.0159 41.2735 52.1841 41.269 51.3544 41.3001C51.0078 41.313 50.8638 41.1904 50.7505 40.8773C50.1066 39.1029 49.4413 37.3366 48.7823 35.5676C48.7512 35.4841 48.7112 35.4037 48.5996 35.3367V41.2539H43.2693V24.0249H43.2688Z" fill="var(--fill-0, black)"/>
<path id="Vector_3" d="M27.1599 22.362C27.5016 21.1695 27.8149 20.0569 28.1402 18.9475C29.9271 12.8477 31.7215 6.75009 33.4955 0.64629C33.631 0.178167 33.8101 -0.00392948 34.3314 6.77734e-05C37.7216 0.0280485 41.1118 0.0191657 44.502 0.00672986C44.8424 0.00539744 44.9828 0.0995549 45.0801 0.438433C47.1243 7.55043 49.1836 14.6584 51.2388 21.7673C51.2886 21.9392 51.3242 22.1155 51.3837 22.362C50.3256 22.362 49.3151 22.3083 48.313 22.3802C47.6082 22.4309 47.2705 22.2159 47.0199 21.543C46.6195 20.4669 45.8378 19.6674 44.7824 19.1789C44.0763 18.852 43.3586 18.546 42.6316 18.2684C42.1867 18.0987 41.9223 17.8163 41.9388 17.3504C41.9659 16.5891 41.953 15.8101 42.1196 15.075C42.2356 14.5638 42.62 14.1321 43.2297 13.9927C43.9874 13.8194 44.7371 13.6076 45.4796 13.3789C45.7596 13.2927 46.0293 13.139 46.2711 12.9698C46.663 12.6962 46.655 12.3915 46.2289 12.1677C45.8058 11.9452 45.3485 11.7853 44.8997 11.6147C44.6371 11.5148 44.3669 11.414 44.0909 11.3718C43.4377 11.271 43.2124 10.893 43.1582 10.257C43.0977 9.55216 42.9577 8.84421 42.7631 8.1629C42.4494 7.06321 41.7268 6.6053 40.6541 6.94063C39.6795 7.24531 38.7788 7.1587 37.8318 6.90465C36.9777 6.67548 36.2809 6.99792 36.0076 7.84356C35.7196 8.7345 35.5583 9.67341 35.4241 10.603C35.3614 11.0378 35.1615 11.1866 34.7944 11.3025C34.0527 11.5366 33.3142 11.7871 32.5929 12.0771C32.3925 12.1575 32.1285 12.3995 32.1272 12.5688C32.1263 12.7469 32.3721 13.0187 32.568 13.0893C33.483 13.4193 34.4105 13.7222 35.349 13.9776C35.9756 14.1481 36.5275 14.6882 36.5862 15.3415C36.6333 15.8696 36.6866 16.399 36.699 16.9284C36.7217 17.8998 36.627 18.0197 35.7405 18.3665C35.2623 18.5535 34.7891 18.7538 34.3131 18.9466C32.8915 19.5217 31.9241 20.5384 31.4117 21.9756C31.3042 22.2772 31.1589 22.3749 30.8425 22.3696C29.648 22.3509 28.453 22.362 27.1594 22.362H27.1599Z" fill="var(--fill-0, black)"/>
<path id="Vector_4" d="M28.0464 24.0724C31.0874 24.0724 34.1101 23.9809 37.1243 24.1031C39.3147 24.1919 41.0331 25.2298 41.8357 27.4057C42.2485 28.5258 42.3569 29.6974 42.2125 30.8851C41.9837 32.7651 41.202 34.3054 39.4102 35.2785C40.5025 37.2611 41.585 39.2264 42.6982 41.2473C42.5231 41.2637 42.4023 41.285 42.2818 41.2855C40.6203 41.2881 38.9587 41.2815 37.2976 41.2939C37.0012 41.2961 36.8177 41.2264 36.6697 40.943C35.9316 39.5338 35.1464 38.1485 34.4269 36.7295C34.1812 36.2445 33.9207 35.9749 33.3022 36.2058V41.2468H28.0473V24.0724H28.0464ZM33.2959 32.0296C34.1612 31.9852 34.9922 32.003 35.8036 31.8844C36.683 31.7556 37.1394 31.017 37.1048 29.9919C37.0768 29.1609 36.5599 28.5418 35.6943 28.4654C34.9091 28.3961 34.1132 28.4507 33.2964 28.4507V32.0296H33.2959Z" fill="var(--fill-0, black)"/>
<path id="Vector_5" d="M77.5851 24.0484C77.709 24.0391 77.805 24.0258 77.9015 24.0258C80.6087 24.0289 83.3176 23.9805 86.023 24.0555C87.9237 24.1084 89.6057 24.7364 90.6704 26.4716C91.9316 28.5267 92.0009 32.6834 89.6963 34.6091C89.4057 34.8521 89.084 35.0582 88.7302 35.3149C89.7959 37.2615 90.8722 39.2277 92 41.2877C91.5281 41.2877 91.1548 41.2877 90.7819 41.2877C89.4035 41.2877 88.0245 41.2757 86.6461 41.2957C86.3146 41.3005 86.1448 41.1908 85.9946 40.9013C85.2618 39.4898 84.477 38.105 83.7744 36.6788C83.526 36.1752 83.2301 36.0246 82.6733 36.1801V41.2455H77.5846V24.0475L77.5851 24.0484ZM82.6839 28.4418V31.9923C83.3185 31.9923 83.9131 31.9989 84.5072 31.9887C84.7041 31.9852 84.9023 31.9492 85.096 31.9097C85.999 31.7254 86.4834 31.0325 86.4421 29.9941C86.4088 29.1547 85.8377 28.5093 84.9845 28.4525C84.2291 28.4023 83.4674 28.4418 82.6839 28.4418Z" fill="var(--fill-0, black)"/>
<path id="Vector_6" d="M69.316 41.265H63.3439V24.0555H76.4292V41.2504H70.8486C70.8349 41.13 70.8113 41.0181 70.8113 40.9062C70.81 39.3459 70.8184 37.7856 70.8087 36.2254C70.8064 35.9047 70.902 35.7621 71.2384 35.6951C72.8768 35.3691 73.5109 34.4581 73.4114 32.7549C73.3065 30.9668 73.2568 29.1756 73.183 27.3861C73.1803 27.3199 73.2074 27.2356 73.1763 27.1903C73.0737 27.0424 72.9506 26.9087 72.8355 26.7697C72.7208 26.9087 72.5169 27.0415 72.5075 27.1871C72.468 27.7987 72.488 28.4143 72.4831 29.0285C72.4729 30.2397 72.4618 31.4509 72.4467 32.662C72.4449 32.8099 72.4253 32.9601 72.3951 33.1049C72.272 33.6973 71.9076 33.9887 71.3535 33.9483C70.8638 33.9127 70.6065 33.6045 70.5918 32.9689C70.5496 31.1444 70.5216 29.3195 70.4882 27.4945C70.486 27.3781 70.5265 27.2413 70.478 27.1507C70.402 27.0073 70.2674 26.8945 70.1576 26.7692C70.0372 26.9011 69.9043 27.0246 69.8026 27.1698C69.7635 27.2258 69.7972 27.3315 69.7955 27.4145C69.7586 29.2559 69.7248 31.0973 69.683 32.9387C69.6684 33.5854 69.3977 33.9163 68.8871 33.9465C68.3197 33.9802 67.9606 33.6596 67.8619 33.0271C67.8468 32.9294 67.8402 32.8295 67.8388 32.7309C67.8251 31.7853 67.8108 30.8393 67.8019 29.8937C67.7944 29.0472 67.8131 28.1998 67.7753 27.3546C67.7664 27.1543 67.5922 26.8074 67.4678 26.7954C67.1154 26.7608 67.1114 27.0797 67.0976 27.3581C67.0038 29.2457 66.9078 31.1333 66.7994 33.02C66.7221 34.368 67.4544 35.3691 68.832 35.6698C69.2324 35.7572 69.3271 35.9189 69.3231 36.2964C69.3053 37.9371 69.3155 39.5777 69.3155 41.265H69.316Z" fill="var(--fill-0, black)"/>
<path id="Vector_7" d="M14.9882 31.8506C14.8393 33.5441 16.0867 35.1728 17.7332 35.4965C17.8958 35.5285 18.0824 35.5156 18.2158 35.5942C18.3589 35.6786 18.5526 35.8465 18.553 35.978C18.5562 37.588 18.5388 39.198 18.4908 40.8071C18.4859 40.9692 18.2478 41.261 18.1153 41.2623C15.6086 41.2899 13.1013 41.2828 10.5132 41.2828C10.7074 40.5735 10.8794 39.9099 11.0705 39.2522C12.5085 34.3111 13.9537 29.3719 15.3837 24.4286C15.4739 24.1173 15.6001 24.0115 15.9263 24.0138C18.0527 24.0284 20.1795 24.0222 22.3063 24.02C22.5645 24.02 22.7551 24.0147 22.8498 24.3606C24.334 29.8058 25.8378 35.2456 27.3359 40.6872C27.3839 40.8613 27.4159 41.0394 27.4625 41.2468C27.323 41.2615 27.2137 41.2832 27.1043 41.2832C24.8113 41.2863 22.5187 41.2792 20.2257 41.2943C19.8022 41.297 19.6236 41.154 19.6205 40.7236C19.6085 39.1642 19.5885 37.6044 19.5467 36.0455C19.5338 35.5712 19.6907 35.3273 20.1711 35.2007C22.1179 34.6891 23.2715 32.9156 23.0076 30.8331C21.9206 30.869 21.0021 31.2643 20.2395 32.0451C19.4885 32.8139 19.2849 33.819 19.0108 34.8832C18.4237 32.8273 17.1488 31.7747 14.9891 31.8502L14.9882 31.8506Z" fill="var(--fill-0, black)"/>
<path id="Vector_8" d="M25.3881 22.3411H17.7656V0.0542545H25.3881V22.3416V22.3411Z" fill="var(--fill-0, black)"/>
<path id="Vector_9" d="M0 41.2521V24.0586H12.1281V28.4134H5.29217V30.8149H11.0674V35.1741H5.26107V41.2521H0Z" fill="var(--fill-0, black)"/>
</g>
</svg>
